<svg width="24" height="24" viewBox="0 0 24 24" fill="none" xmlns="http://www.w3.org/2000/svg">
<path d="M12 1.65685e-05C5.37282 1.65685e-05 1.11441e-05 5.37095 1.11441e-05 12C1.11441e-05 18.6291 5.37282 24 12 24C18.6272 24 24 18.6258 24 12C24 5.37423 18.6272 1.65685e-05 12 1.65685e-05Z" fill="#2AD352"/>
<path d="M1.11441e-05 12C-0.00269772 13.9835 0.488481 15.9365 1.42923 17.6827C2.62777 18.0346 3.87057 18.2128 5.1197 18.2119C12.3338 18.2119 18.1819 12.3638 18.1819 5.1497C18.183 3.88077 17.9991 2.61845 17.6363 1.40252C15.9015 0.47848 13.9655 -0.00325657 12 1.65685e-05C5.37282 1.65685e-05 1.11441e-05 5.37095 1.11441e-05 12Z" fill="#74DA7F"/>
<path d="M18.8438 10.0116L11.6311 17.5861C11.4345 17.7923 11.1984 17.9567 10.9368 18.0695C10.6752 18.1822 10.3935 18.241 10.1086 18.2423H10.0992C9.81593 18.2424 9.53551 18.1856 9.27462 18.0752C9.01372 17.9648 8.77767 17.8031 8.58048 17.5997L4.75313 13.6575C4.55538 13.459 4.39902 13.2232 4.29313 12.9638C4.18724 12.7044 4.13393 12.4265 4.13629 12.1463C4.13865 11.8661 4.19663 11.5892 4.30688 11.3316C4.41713 11.074 4.57744 10.8409 4.77851 10.6457C4.97958 10.4506 5.21741 10.2973 5.47818 10.1948C5.73896 10.0923 6.0175 10.0427 6.29763 10.0487C6.57777 10.0547 6.85391 10.1163 7.11005 10.2299C7.36618 10.3435 7.5972 10.5069 7.78969 10.7105L10.0842 13.0739L15.7791 7.09361C15.9698 6.88905 16.1993 6.72434 16.4541 6.60902C16.7089 6.4937 16.9841 6.43004 17.2637 6.42174C17.5433 6.41344 17.8217 6.46065 18.083 6.56065C18.3442 6.66064 18.583 6.81144 18.7856 7.00432C18.9881 7.19719 19.1505 7.42832 19.2631 7.68433C19.3758 7.94034 19.4366 8.21615 19.442 8.4958C19.4474 8.77546 19.3974 9.05342 19.2947 9.31359C19.192 9.57377 19.0387 9.811 18.8438 10.0116Z" fill="white"/>
</svg>
