<?xml version="1.0" encoding="UTF-8"?>
<svg id="Layer_2" data-name="Layer 2" xmlns="http://www.w3.org/2000/svg" xmlns:xlink="http://www.w3.org/1999/xlink" viewBox="0 0 836.45 184.54">
  <defs>
    <style>
      .cls-1 {
        fill: url(#linear-gradient-2);
      }

      .cls-2, .cls-3 {
        fill: #fff;
      }

      .cls-4, .cls-5 {
        fill: #0bb7d3;
      }

      .cls-6 {
        fill: url(#linear-gradient);
      }

      .cls-6, .cls-5 {
        fill-rule: evenodd;
      }

      .cls-3 {
        opacity: .6;
      }

      .cls-7 {
        fill: #2c173d;
      }
    </style>
    <linearGradient id="linear-gradient" x1="-55.14" y1="239.68" x2="143.86" y2="40.68" gradientUnits="userSpaceOnUse">
      <stop offset=".52" stop-color="#6e33ff"/>
      <stop offset="1" stop-color="#0bb7d3"/>
    </linearGradient>
    <linearGradient id="linear-gradient-2" x1="-406.87" y1="-543.25" x2="-400.29" y2="-701.05" gradientTransform="translate(-562.83 -297.18) rotate(152.61)" gradientUnits="userSpaceOnUse">
      <stop offset="0" stop-color="#fff" stop-opacity="0"/>
      <stop offset=".54" stop-color="#fff" stop-opacity=".4"/>
      <stop offset="1" stop-color="#fff" stop-opacity="0"/>
    </linearGradient>
  </defs>
  <g id="Layer_2-2" data-name="Layer 2">
    <path class="cls-6" d="m115.67,0h-46.81c-9.49,0-18.58,3.77-25.29,10.48L10.48,43.58C3.77,50.28,0,59.38,0,68.86v46.81c0,9.49,3.77,18.58,10.48,25.29l33.1,33.1c6.71,6.71,15.8,10.48,25.29,10.48h46.81c9.49,0,18.58-3.77,25.29-10.48l33.1-33.1c6.71-6.71,10.48-15.8,10.48-25.29v-46.81c0-9.49-3.77-18.58-10.48-25.29l-33.1-33.1c-6.71-6.71-15.8-10.48-25.29-10.48Z"/>
    <path class="cls-1" d="m184.54,101.91v-33.05c0-9.49-3.77-18.58-10.48-25.29l-33.1-33.1c-6.71-6.71-15.8-10.48-25.29-10.48h-46.81c-9.49,0-18.58,3.77-25.29,10.48L10.48,43.58C3.77,50.28,0,59.38,0,68.86v46.81c0,9.49,3.77,18.58,10.48,25.29l27.86,27.86c33.01-1.39,65.41-9.85,89.37-22.66,19.23-9.65,39.3-25.2,56.84-44.25Z"/>
    <g>
      <g>
        <polygon class="cls-2" points="90.26 65.55 68.76 65.55 54.59 99.51 40.33 65.55 21.36 65.55 55.76 144.95 90.16 65.75 90.26 65.55"/>
        <path class="cls-2" d="m125.66,66.85l-.6,1.3-7.2,16.5c4.3.7,7.5,4.5,7.5,8.9,0,5-4.1,9.1-9.1,9.1h-6.2l-7.7,17.7h14.6c15.1,0,27.4-12.2,27.4-27.4.1-12.2-7.8-22.5-18.7-26.1Z"/>
        <polygon class="cls-3" points="116.86 65.75 96.96 65.75 73.66 119.35 84.86 145.15 119.26 65.75 116.86 65.75"/>
      </g>
      <polygon class="cls-2" points="136.98 39.39 140.91 46.69 148.21 50.62 140.91 54.55 136.98 61.85 133.05 54.55 125.76 50.62 133.05 46.69 136.98 39.39"/>
      <polygon class="cls-3" points="153.83 58.1 157.19 64.28 163.18 67.46 157.19 70.83 153.83 76.82 150.64 70.83 144.47 67.46 150.64 64.28 153.83 58.1"/>
    </g>
    <g>
      <path class="cls-7" d="m266.03,146.28h-16.7c-1.58,0-2.66-.74-3.21-2.24l-35.37-92.75c-.14-.42-.21-.81-.21-1.19,0-.65.21-1.15.63-1.5s1-.52,1.75-.52h21.25c1.54,0,2.59.75,3.15,2.24l20.76,60.53,19.08-60.46c.47-1.54,1.51-2.31,3.15-2.31h20.83c.79,0,1.41.19,1.85.56.44.37.66.89.66,1.54,0,.33-.07.7-.21,1.12l-10.62,32.01,9.02,27.47,20.41-60.39c.51-1.54,1.56-2.31,3.15-2.31h21.18c.74,0,1.34.17,1.78.52.44.35.66.85.66,1.5,0,.37-.07.77-.21,1.19l-35.71,92.75c-.56,1.49-1.63,2.24-3.22,2.24h-16.42c-1.58,0-2.66-.74-3.21-2.24l-10.34-28.1-10.62,28.1c-.56,1.49-1.63,2.24-3.21,2.24Z"/>
      <path class="cls-7" d="m382.96,146.28h-19.57c-1.86,0-2.8-.93-2.8-2.8V50.88c0-1.86.93-2.79,2.8-2.79h37.81c7.08,0,13.29,1.42,18.63,4.26,5.33,2.84,9.46,6.77,12.37,11.78,2.91,5.01,4.37,10.66,4.37,16.95,0,6.8-1.4,12.79-4.19,17.96s-6.84,9.19-12.13,12.06c-5.29,2.87-11.54,4.3-18.77,4.3h-15.73v28.1c0,1.86-.93,2.8-2.8,2.8Zm22.58-55.08c1.82-.98,3.25-2.34,4.3-4.09,1.05-1.75,1.57-3.69,1.57-5.84s-.52-3.87-1.57-5.45c-1.05-1.58-2.47-2.82-4.26-3.7-1.79-.88-3.81-1.33-6.05-1.33h-13.77v21.88h13.7c2.24,0,4.26-.49,6.08-1.47Z"/>
      <path class="cls-7" d="m449.56,49.83v-16.42c0-1.86.93-2.8,2.8-2.8h18.52c1.86,0,2.79.93,2.79,2.8v16.42c0,1.86-.93,2.8-2.79,2.8h-18.52c-1.86,0-2.8-.93-2.8-2.8Zm21.11,96.45h-18.17c-1.86,0-2.8-.93-2.8-2.8v-78.98c0-1.86.93-2.79,2.8-2.79h18.17c1.86,0,2.8.93,2.8,2.79v78.98c0,1.86-.93,2.8-2.8,2.8Z"/>
      <path class="cls-7" d="m514,146.28h-17.96c-1.86,0-2.8-.93-2.8-2.8V39.84c0-1.86.93-2.79,2.8-2.79h17.96c1.86,0,2.8.93,2.8,2.79v103.65c0,1.86-.93,2.8-2.8,2.8Z"/>
      <path class="cls-7" d="m552.97,142.51c-6.83-3.91-12.23-9.23-16.22-15.93-3.98-6.71-5.98-14.05-5.98-22.02s2-15.54,6.01-22.3c4.01-6.75,9.45-12.1,16.32-16.04,6.87-3.94,14.41-5.91,22.61-5.91s15.81,1.97,22.68,5.91c6.87,3.94,12.31,9.29,16.32,16.04,4.01,6.76,6.01,14.19,6.01,22.3s-2.02,15.31-6.05,22.02c-4.03,6.71-9.51,12.02-16.42,15.93-6.92,3.91-14.5,5.87-22.75,5.87s-15.71-1.96-22.54-5.87Zm33.48-19.64c3.24-1.86,5.8-4.41,7.69-7.65,1.89-3.24,2.83-6.84,2.83-10.8s-.94-7.64-2.83-10.9c-1.89-3.26-4.45-5.82-7.69-7.69-3.24-1.86-6.79-2.8-10.66-2.8s-7.49.93-10.73,2.8c-3.24,1.86-5.8,4.43-7.69,7.69-1.89,3.26-2.83,6.9-2.83,10.9s.94,7.56,2.83,10.8c1.89,3.24,4.45,5.79,7.69,7.65,3.24,1.86,6.81,2.8,10.73,2.8s7.42-.93,10.66-2.8Z"/>
      <path class="cls-7" d="m656.37,146.28h-18.17c-1.86,0-2.8-.93-2.8-2.8v-59.76h-6.99c-1.86,0-2.79-.93-2.79-2.8v-16.42c0-1.86.93-2.79,2.79-2.79h6.85v-15.24c0-1.72.84-2.75,2.52-3.08l18.38-3.56c.19-.05.42-.07.7-.07.75,0,1.33.23,1.75.7.42.47.63,1.1.63,1.89v19.36h13.14c1.86,0,2.8.93,2.8,2.79v16.42c0,1.86-.93,2.8-2.8,2.8h-13.21v59.76c0,1.86-.93,2.8-2.8,2.8Z"/>
    </g>
    <g>
      <path class="cls-4" d="m726.24,39.88l-39.19,106.84h27.52l6.16-19.96h35.3l6.24,19.96h27.66l-39.48-106.84h-24.21Zm.66,67l11.45-37.06,11.52,37.06h-22.97Z"/>
      <rect class="cls-4" x="797.86" y="67.33" width="24.8" height="79.4"/>
    </g>
    <path class="cls-5" d="m810.3,15.15l6.15,16.64,16.64,6.16-16.64,6.16-6.15,16.64-6.15-16.64-16.64-6.16,16.64-6.16,6.15-16.64Z"/>
    <path class="cls-5" d="m827.5,8.79l2.42,6.53,6.53,2.42-6.53,2.42-2.42,6.53-2.42-6.53-6.53-2.42,6.53-2.42,2.42-6.53Z"/>
  </g>
</svg>