<svg width="302" height="302" viewBox="0 0 302 302" fill="none" xmlns="http://www.w3.org/2000/svg">
<circle cx="155" cy="151" r="112" fill="white"/>
<path fill-rule="evenodd" clip-rule="evenodd" d="M170.078 6.52651L189.258 21.0592C194.504 25.0337 200.026 27.0678 206.569 27.4366L230.49 28.7835C244.815 29.5897 256.449 39.4703 259.72 53.6094L265.185 77.2216C266.679 83.6792 269.618 88.83 274.396 93.3687L291.866 109.965C302.326 119.903 304.963 135.041 298.492 148.001L287.683 169.644C284.727 175.563 283.707 181.42 284.484 188.006L287.328 212.086C289.031 226.505 281.437 239.817 268.25 245.534L246.225 255.081C240.202 257.692 235.701 261.515 232.114 267.066L219 287.362C211.148 299.515 196.878 304.772 183.145 300.571L160.211 293.556C153.939 291.637 148.063 291.637 141.79 293.556L118.856 300.571C105.124 304.772 90.8528 299.515 83.0008 287.362L69.887 267.066C66.3001 261.515 61.799 257.692 55.776 255.081L33.7501 245.532C20.5627 239.815 12.9693 226.504 14.6718 212.085L17.5157 188.005C18.2933 181.419 17.2728 175.562 14.317 169.643L3.50848 147.999C-2.96315 135.04 -0.326301 119.902 10.1343 109.964L27.6044 93.3674C32.3823 88.8287 35.3199 83.6779 36.8141 77.2203L42.2791 53.6082C45.5508 39.4697 57.1847 29.5891 71.509 28.7822L95.4306 27.4353C101.973 27.0672 107.495 25.0325 112.741 21.0579L131.922 6.52523C143.406 -2.17529 158.593 -2.17529 170.078 6.52651ZM150.999 46.8468C122.586 46.8468 96.8607 58.5048 78.2398 77.3528C59.619 96.2014 48.1014 122.239 48.1014 151C48.1014 179.76 59.619 205.799 78.2398 224.647C96.8607 243.494 122.586 255.152 150.999 255.152C179.413 255.152 205.138 243.494 223.759 224.647C242.38 205.799 253.897 179.76 253.897 151C253.897 122.239 242.38 96.2008 223.759 77.3528C205.138 58.5048 179.413 46.8468 150.999 46.8468ZM216.641 84.5574C199.842 67.5537 176.634 57.0363 150.999 57.0363C125.365 57.0363 102.156 67.5537 85.3576 84.5574C68.5588 101.561 58.1681 125.052 58.1681 151C58.1681 176.947 68.5588 200.438 85.3576 217.442C102.156 234.446 125.365 244.963 150.999 244.963C176.634 244.963 199.842 234.446 216.641 217.443C233.44 200.439 243.83 176.948 243.83 151C243.831 125.052 233.44 101.561 216.641 84.5574Z" fill="#FF284C"/>
<rect x="180.373" y="101" width="27.4031" height="111.718" rx="13.7015" transform="rotate(44.1588 180.373 101)" fill="white"/>
<rect x="200.373" y="181" width="27.4031" height="111.718" rx="13.7015" transform="rotate(135 200.373 181)" fill="white"/>
</svg>
