<?xml version="1.0" encoding="UTF-8"?>
<svg id="Layer_2" data-name="Layer 2" xmlns="http://www.w3.org/2000/svg" xmlns:xlink="http://www.w3.org/1999/xlink" viewBox="0 0 760.78 150">
  <defs>
    <style>
      .cls-1 {
        fill: url(#linear-gradient-2);
      }

      .cls-2 {
        opacity: .3;
      }

      .cls-3 {
        fill: #fff;
      }

      .cls-4 {
        fill: url(#linear-gradient-4);
      }

      .cls-5 {
        fill: url(#linear-gradient-3);
      }

      .cls-6 {
        fill: url(#linear-gradient-5);
      }

      .cls-7 {
        fill: url(#linear-gradient-8);
      }

      .cls-8 {
        fill: url(#linear-gradient-7);
      }

      .cls-9 {
        fill: url(#linear-gradient-9);
      }

      .cls-10 {
        fill: url(#linear-gradient-6);
      }

      .cls-11 {
        fill: url(#linear-gradient);
      }

      .cls-12 {
        opacity: .5;
      }
    </style>
    <linearGradient id="linear-gradient" x1="125.46" y1="126.09" x2="41.83" y2="43.1" gradientUnits="userSpaceOnUse">
      <stop offset="0" stop-color="#771aff"/>
      <stop offset="1" stop-color="#f072af"/>
    </linearGradient>
    <linearGradient id="linear-gradient-2" x1="36.9" y1="51.35" x2="67.64" y2="51.35" xlink:href="#linear-gradient"/>
    <linearGradient id="linear-gradient-3" x1="54.6" y1="41.21" x2="67.77" y2="41.21" xlink:href="#linear-gradient"/>
    <linearGradient id="linear-gradient-4" x1="14.44" y1="120.46" x2="165.33" y2="-30.44" xlink:href="#linear-gradient"/>
    <linearGradient id="linear-gradient-5" x1="110.83" y1="140.49" x2="37.65" y2="65.38" gradientUnits="userSpaceOnUse">
      <stop offset="0" stop-color="#fff" stop-opacity="0"/>
      <stop offset=".46" stop-color="#fff" stop-opacity=".5"/>
      <stop offset="1" stop-color="#fff" stop-opacity="0"/>
    </linearGradient>
    <linearGradient id="linear-gradient-6" x1="141.28" y1="115.58" x2="72" y2="44.47" xlink:href="#linear-gradient-5"/>
    <linearGradient id="linear-gradient-7" x1="36.9" y1="51.35" x2="63.09" y2="51.35" xlink:href="#linear-gradient-5"/>
    <linearGradient id="linear-gradient-8" x1="54.6" y1="41.21" x2="65.88" y2="41.21" xlink:href="#linear-gradient-5"/>
    <linearGradient id="linear-gradient-9" x1="0" y1="75" x2="150.01" y2="75" xlink:href="#linear-gradient-5"/>
  </defs>
  <g id="Layer_1-2" data-name="Layer 1">
    <g>
      <g>
        <path class="cls-11" d="M106.68,57.09l-42.64-.98c-2.54-.05-4.99.94-6.79,2.74s-2.79,4.25-2.74,6.79l.98,42.64,18.7,23-.53-42.8,44.69,44.69,13.23-13.23-44.69-44.69,44.41.53-24.61-18.7Z"/>
        <path class="cls-1" d="M50,64.45h0c0-7.23-5.86-13.09-13.09-13.09h0c7.23,0,13.09-5.86,13.09-13.09h0c0,7.23,5.86,13.09,13.09,13.09h0c-7.23,0-13.09,5.86-13.09,13.09Z"/>
        <path class="cls-5" d="M60.24,46.85h0c0-3.11-2.52-5.64-5.64-5.64h0c3.11,0,5.64-2.52,5.64-5.64h0c0,3.11,2.52,5.64,5.64,5.64h0c-3.11,0-5.64,2.52-5.64,5.64Z"/>
        <path class="cls-4" d="M75.01,0C40.17,0,10.81,23.87,2.41,56.11c-1.57,6.04-2.41,12.37-2.41,18.89,0,41.08,33.2,74.55,74.18,74.99v-18.71c-30.66-.44-55.48-25.51-55.48-56.28,0-6.62,1.16-12.98,3.27-18.89,7.78-21.78,28.61-37.41,53.03-37.41,31.04,0,56.3,25.26,56.3,56.3,0,.26-.02.52-.02.79h18.71c0-.26.01-.52.01-.79C150.01,33.65,116.36,0,75.01,0Z"/>
      </g>
      <g>
        <path class="cls-3" d="M185.87,119.61V43.29c0-1.54.77-2.31,2.3-2.31h29.49c5.41,0,10.17,1.09,14.26,3.26,4.09,2.17,7.26,5.22,9.5,9.16s3.37,8.52,3.37,13.74c0,5.61-1.28,10.37-3.83,14.29-2.56,3.92-6.1,6.89-10.63,8.93l13.71,28.86c.19.46.29.85.29,1.15,0,.46-.18.83-.55,1.12s-.85.43-1.47.43h-6.8c-1.27,0-2.17-.58-2.71-1.73l-12.44-27.19c-1.92.19-3.69.29-5.3.29h-18.84v26.33c0,1.54-.77,2.3-2.3,2.3h-5.76c-1.54,0-2.3-.77-2.3-2.3ZM226.02,81.74c2.65-1.36,4.7-3.3,6.16-5.82,1.46-2.52,2.19-5.44,2.19-8.78s-.73-6.38-2.19-8.9c-1.46-2.51-3.52-4.44-6.19-5.76-2.67-1.33-5.73-1.99-9.19-1.99h-20.57v33.29h20.51c3.53,0,6.62-.68,9.27-2.04Z"/>
        <path class="cls-3" d="M267.02,118.69c-5.18-3.19-9.29-7.51-12.33-12.96-3.03-5.45-4.55-11.42-4.55-17.92s1.41-12.55,4.23-18.06c2.82-5.51,6.67-9.87,11.55-13.08,4.88-3.21,10.25-4.81,16.13-4.81,6.3,0,11.84,1.55,16.62,4.67,4.78,3.11,8.47,7.39,11.06,12.85,2.59,5.45,3.89,11.56,3.89,18.32v2.42c-.04.54-.26.95-.66,1.24-.4.29-.97.43-1.7.43h-51.21c.54,4.46,1.97,8.36,4.29,11.72,2.32,3.36,5.24,5.94,8.76,7.75,3.51,1.81,7.29,2.71,11.32,2.71,6.57,0,12.52-2.19,17.86-6.57.54-.46,1.06-.69,1.56-.69.65,0,1.21.35,1.67,1.04l2.71,3.97c.38.58.58,1.08.58,1.5,0,.65-.31,1.23-.92,1.73-3.26,2.73-6.9,4.83-10.92,6.31-4.01,1.48-8.32,2.22-12.93,2.22-6.15,0-11.81-1.59-16.99-4.78ZM300,71.28c-1.9-3.19-4.37-5.64-7.4-7.35-3.03-1.71-6.47-2.56-10.31-2.56s-7.05.87-10.2,2.62c-3.15,1.75-5.78,4.23-7.89,7.43-2.11,3.21-3.48,6.92-4.09,11.15h43.55c-.54-4.34-1.76-8.1-3.66-11.29Z"/>
        <path class="cls-3" d="M340.22,118.69c-5.45-3.19-9.74-7.51-12.87-12.96-3.13-5.45-4.69-11.44-4.69-17.97s1.56-12.59,4.69-18.06c3.13-5.47,7.41-9.81,12.85-13.02,5.43-3.21,11.45-4.81,18.06-4.81,4.53,0,8.79.73,12.79,2.19,3.99,1.46,7.58,3.53,10.77,6.22.58.54.86,1.09.86,1.67,0,.42-.19.96-.58,1.61l-2.48,3.97c-.46.69-1,1.04-1.61,1.04-.54,0-1.08-.23-1.61-.69-5.34-4.34-11.27-6.51-17.8-6.51-4.72,0-9.07,1.14-13.05,3.43-3.97,2.29-7.14,5.44-9.5,9.48-2.36,4.03-3.54,8.52-3.54,13.48s1.18,9.43,3.54,13.42,5.54,7.12,9.53,9.39c3.99,2.27,8.35,3.4,13.08,3.4,6.53,0,12.46-2.17,17.8-6.51.46-.42.98-.63,1.56-.63.65,0,1.21.35,1.67,1.04l2.42,3.92c.38.54.58,1.09.58,1.67,0,.5-.23.96-.69,1.38-3.15,2.77-6.74,4.9-10.77,6.39-4.03,1.5-8.35,2.25-12.96,2.25-6.57,0-12.58-1.59-18.03-4.78Z"/>
        <path class="cls-3" d="M447.64,53.08h5.24c1.53,0,2.3.77,2.3,2.3v64.23c0,1.54-.77,2.3-2.3,2.3h-4.55c-.73,0-1.29-.19-1.67-.58-.39-.38-.6-.94-.63-1.67l-.23-7.32c-2.5,3.11-5.85,5.69-10.05,7.75s-8.57,3.08-13.11,3.08c-5.53,0-10.38-1.19-14.54-3.57s-7.38-5.77-9.65-10.17c-2.27-4.4-3.4-9.51-3.4-15.35v-38.71c0-1.54.77-2.3,2.3-2.3h5.47c1.53,0,2.3.77,2.3,2.3v37.73c0,4.15.79,7.77,2.36,10.86,1.57,3.09,3.79,5.47,6.65,7.14,2.86,1.67,6.19,2.51,9.99,2.51s7.32-.89,10.57-2.68c3.24-1.79,5.83-4.24,7.75-7.37,1.92-3.13,2.88-6.61,2.88-10.45v-37.73c0-1.54.77-2.3,2.3-2.3Z"/>
        <path class="cls-3" d="M514.79,55.56c.84.5,1.27,1.13,1.27,1.9,0,.42-.12.85-.35,1.27l-2.25,4.44c-.46.85-1.06,1.27-1.79,1.27-.42,0-.88-.13-1.38-.4-3.38-1.77-6.61-2.65-9.68-2.65s-5.77,1.03-8.44,3.08c-2.67,2.05-4.82,4.92-6.45,8.58s-2.45,7.79-2.45,12.36v34.22c0,1.54-.77,2.3-2.3,2.3h-5.24c-1.54,0-2.3-.77-2.3-2.3V55.38c0-1.54.77-2.3,2.3-2.3h4.49c1.53,0,2.32.75,2.36,2.25l.23,7.32c2.38-3.42,5.04-6.07,7.98-7.95,2.94-1.88,6.6-2.82,10.97-2.82,4.11,0,8.45,1.23,13.02,3.69Z"/>
        <path class="cls-3" d="M541.05,121.91h-14.06c-1.54,0-2.3-.77-2.3-2.3V43.29c0-1.54.77-2.31,2.3-2.31h14.06c1.54,0,2.31.77,2.31,2.31v27.53h32.89v-27.53c0-1.54.77-2.31,2.3-2.31h14.11c1.53,0,2.3.77,2.3,2.31v76.32c0,1.54-.77,2.3-2.3,2.3h-14.11c-1.54,0-2.3-.77-2.3-2.3v-30.93h-32.89v30.93c0,1.54-.77,2.3-2.31,2.3Z"/>
        <path class="cls-3" d="M659.7,52.39h13.08c1.53,0,2.3.77,2.3,2.3v64.92c0,1.54-.77,2.3-2.3,2.3h-10.08c-1.31,0-2.17-.63-2.59-1.9l-2.02-6.16c-2.61,2.69-5.93,4.9-9.97,6.63-4.03,1.73-7.95,2.59-11.75,2.59-5.61,0-10.53-1.27-14.78-3.8-4.24-2.54-7.53-6.12-9.85-10.74-2.32-4.63-3.49-10.01-3.49-16.16v-37.67c0-1.53.77-2.3,2.3-2.3h13.08c1.53,0,2.3.77,2.3,2.3v35.77c0,3.26.6,6.13,1.81,8.61s2.93,4.39,5.16,5.73c2.23,1.34,4.82,2.02,7.78,2.02s5.83-.72,8.38-2.16c2.55-1.44,4.58-3.37,6.08-5.79,1.5-2.42,2.25-5.01,2.25-7.78v-36.41c0-1.53.77-2.3,2.3-2.3Z"/>
        <path class="cls-3" d="M743.12,56.04c5.43,3.21,9.73,7.57,12.9,13.08,3.17,5.51,4.75,11.55,4.75,18.12s-1.57,12.62-4.72,18.17c-3.15,5.55-7.44,9.94-12.87,13.16-5.43,3.23-11.4,4.84-17.89,4.84-4.03,0-7.65-.71-10.86-2.13-3.21-1.42-5.98-3.38-8.32-5.88l-1.15,4.61c-.46,1.27-1.32,1.9-2.59,1.9h-10.2c-1.54,0-2.3-.77-2.3-2.3V34.07c0-1.54.77-2.3,2.3-2.3h13.13c1.54,0,2.3.77,2.3,2.3v23.73c4.76-4.38,10.66-6.57,17.68-6.57,6.45,0,12.39,1.6,17.83,4.81ZM734.31,104.06c2.75-1.61,4.9-3.87,6.45-6.77,1.55-2.9,2.33-6.17,2.33-9.82s-.79-6.94-2.36-9.88c-1.57-2.94-3.74-5.25-6.51-6.94-2.76-1.69-5.88-2.53-9.33-2.53s-6.59.85-9.39,2.53c-2.8,1.69-5.01,4-6.62,6.94-1.61,2.94-2.42,6.23-2.42,9.88s.81,6.91,2.42,9.79c1.61,2.88,3.83,5.14,6.65,6.77,2.82,1.63,5.98,2.45,9.48,2.45s6.56-.81,9.3-2.42Z"/>
      </g>
      <g class="cls-12">
        <g>
          <path class="cls-6" d="M124.95,126.56L57.24,58.85c-1.8,1.8-2.79,4.25-2.74,6.79l.98,42.64,18.7,23-.53-42.8,44.69,44.69,6.61-6.61Z"/>
          <path class="cls-10" d="M131.56,119.95l-44.69-44.69,44.41.53-24.61-18.7-42.64-.98c-2.54-.05-4.99.94-6.79,2.74l67.71,67.71,6.61-6.61Z"/>
        </g>
        <g class="cls-2">
          <path class="cls-8" d="M50,64.45h0c0-7.23-5.86-13.09-13.09-13.09h0c7.23,0,13.09-5.86,13.09-13.09h0c0,7.23,5.86,13.09,13.09,13.09h0c-7.23,0-13.09,5.86-13.09,13.09Z"/>
          <path class="cls-7" d="M60.24,46.85h0c0-3.11-2.52-5.64-5.64-5.64h0c3.11,0,5.64-2.52,5.64-5.64h0c0,3.11,2.52,5.64,5.64,5.64h0c-3.11,0-5.64,2.52-5.64,5.64Z"/>
          <path class="cls-9" d="M75.01,0C40.17,0,10.81,23.87,2.41,56.11c-1.57,6.04-2.41,12.37-2.41,18.89,0,41.08,33.2,74.55,74.18,74.99v-18.71c-30.66-.44-55.48-25.51-55.48-56.28,0-6.62,1.16-12.98,3.27-18.89,7.78-21.78,28.61-37.41,53.03-37.41,31.04,0,56.3,25.26,56.3,56.3,0,.26-.02.52-.02.79h18.71c0-.26.01-.52.01-.79C150.01,33.65,116.36,0,75.01,0Z"/>
        </g>
      </g>
    </g>
  </g>
</svg>