<?xml version="1.0" encoding="UTF-8"?>
<svg id="Layer_2" data-name="Layer 2" xmlns="http://www.w3.org/2000/svg" xmlns:xlink="http://www.w3.org/1999/xlink" viewBox="0 0 212.71 204.87">
  <defs>
    <style>
      .cls-1 {
        fill: url(#linear-gradient-2);
      }

      .cls-1, .cls-2 {
        fill-rule: evenodd;
      }

      .cls-2 {
        fill: url(#linear-gradient);
      }
    </style>
    <linearGradient id="linear-gradient" x1=".12" y1="104.12" x2="212.71" y2="104.12" gradientUnits="userSpaceOnUse">
      <stop offset="0" stop-color="#ffd32a"/>
      <stop offset=".26" stop-color="#ffa954"/>
      <stop offset=".77" stop-color="#ff5da0"/>
      <stop offset="1" stop-color="#ff40bf"/>
    </linearGradient>
    <linearGradient id="linear-gradient-2" x1="0" y1="48.3" x2="180.84" y2="48.3" xlink:href="#linear-gradient"/>
  </defs>
  <g id="Layer_1-2" data-name="Layer 1">
    <g>
      <path class="cls-2" d="M163.11,7.52C248,40.38,108.38,103.26.12,108.47c.81,13.62,4.28,26.53,9.9,38.21h0c16.55,34.43,51.75,58.2,92.5,58.2,56.64,0,102.58-45.94,102.58-102.59,0-7.65-.84-15.1-2.43-22.27-15.43,15.77-36.47,28.55-56.14,38.2-9.65,4.73-19.65,9.05-29.91,12.96,13.29-2.52,39.43-8.35,64.69-23.43-2.81,41.06-37.01,73.52-78.78,73.52-28.59,0-53.64-15.21-67.5-37.97C177.63,119.66,275.6,28.71,165.16,7.17c5.15-.86,18.13-3.08,16.81-3.25-1.65-.22-35.61-.55-35.61-.55,0,0,21.19,14.69,21.3,13.92.11-.77-4.45-9.44-4.55-9.77Z"/>
      <path class="cls-1" d="M101.96,0c1.74,0,3.48.04,5.2.13,6.47,4.59,12.58,9.69,18.28,15.23-5.84,2.96-12.67,5.54-20.27,7.65-4.98-7.86-10.64-15.25-16.91-22.1,4.48-.6,9.06-.92,13.71-.92h0ZM126.36,16.26c-5.28,3.59-11.87,6.79-19.5,9.48,5.22,8.62,9.62,17.76,13.12,27.31,10.02-4.01,18.68-8.67,25.55-13.71-5.64-8.34-12.07-16.07-19.17-23.09h0ZM146.18,40.33c3.75,5.63,7.14,11.54,10.14,17.69-4.79,2.73-9.09,4.87-11.59,6.04-6.15,2.89-12.56,5.58-19.13,8.06-1.21-5.34-2.7-10.59-4.44-15.72,10.35-4.79,18.89-10.27,25.02-16.07h0ZM119.25,74.44c-14.54,5.14-29.76,9.33-44.79,12.64-1.17-5.34-2.07-10.71-2.73-16.08,16.43-2.7,31.51-7,44.26-12.32,1.35,5.16,2.45,10.42,3.27,15.76h0ZM71.14,65.31c-.93-10.61-.88-21.23.12-31.74,11.97-1.37,22.97-3.69,32.52-6.79,4.6,8.95,8.37,18.38,11.19,28.18-12.09,4.38-25.89,7.84-40.69,9.92-1.05.15-2.1.29-3.14.42h0ZM71.79,28.68c10.94-.86,21.19-2.54,30.41-4.88-4.34-8.01-9.37-15.62-15.01-22.74-3.49.51-6.91,1.19-10.28,2.04-2.34,8.38-4.05,16.93-5.12,25.58h0ZM67.87,88.47c-5.92,1.21-11.8,2.29-17.57,3.23-7.76,1.27-15.58,2.33-23.42,3.14.72-7.13,1.93-14.12,3.59-20.93,11.18.31,23.23-.34,35.7-2.08.3,5.55.86,11.1,1.7,16.64h0ZM32.45,66.61c3.31-11.13,7.85-21.73,13.47-31.65,7.71.01,15.2-.36,22.37-1.07-1.75,10.54-2.54,21.26-2.33,32.01-11.8,1.21-23.1,1.41-33.5.71h0ZM49.31,29.27c.85.02,1.7.04,2.56.05,5.92.08,11.71-.08,17.33-.45,1.71-8.7,4.08-17.26,7.08-25.61-3.16.82-6.27,1.79-9.31,2.9-6.59,7.11-12.51,14.84-17.67,23.1h0ZM108.03.18c6.86,4.18,13.39,8.89,19.52,14.08,1.84-1,3.58-2.05,5.19-3.13-1.33,1.29-2.81,2.55-4.44,3.77,7.59,6.51,14.56,13.77,20.78,21.69.81-.68,1.59-1.36,2.34-2.04-.62.83-1.29,1.65-2.01,2.46,4.42,5.66,8.46,11.66,12.07,17.95,8.33-5.18,16.79-11.65,19.36-17.69C163.23,15.87,135.46,1.78,108.03.18h0ZM18.79,95.6c-6.26.51-12.53.85-18.79,1.01.47-8.81,2.06-17.33,4.62-25.4,5.9,1.15,12.29,1.96,19.06,2.4-2.15,7.13-3.8,14.47-4.89,21.99h0ZM7.69,62.83c5.64,1.44,11.84,2.54,18.48,3.24,3.96-11.02,9.15-21.46,15.4-31.16-5.36-.11-10.61-.4-15.72-.86-7.56,8.44-13.73,18.15-18.16,28.77h0ZM31.62,28.11c9.44-8.97,20.59-16.16,32.91-21.02-7.02,6.72-13.41,14.11-19.06,22.05-4.72-.2-9.35-.55-13.86-1.03Z"/>
    </g>
  </g>
</svg>