<svg width="638" height="65" viewBox="0 0 638 65" fill="none" xmlns="http://www.w3.org/2000/svg">
<g filter="url(#filter0_in_1052_325)">
<path d="M0 30C0 13.4315 13.4315 0 30 0H608C624.569 0 638 13.4315 638 30V35C638 51.5685 624.569 65 608 65H30C13.4314 65 0 51.5685 0 35V30Z" fill="url(#paint0_linear_1052_325)"/>
<path d="M30 0.75H608C624.154 0.75 637.25 13.8457 637.25 30V35C637.25 51.1543 624.154 64.25 608 64.25H30C13.8457 64.25 0.75 51.1543 0.75 35V30C0.75 13.8457 13.8457 0.75 30 0.75Z" stroke="#FA9DFF" stroke-width="1.5"/>
</g>
<defs>
<filter id="filter0_in_1052_325" x="0" y="0" width="638" height="65" filterUnits="userSpaceOnUse" color-interpolation-filters="sRGB">
<feFlood flood-opacity="0" result="BackgroundImageFix"/>
<feBlend mode="normal" in="SourceGraphic" in2="BackgroundImageFix" result="shape"/>
<feColorMatrix in="SourceAlpha" type="matrix" values="0 0 0 0 0 0 0 0 0 0 0 0 0 0 0 0 0 0 127 0" result="hardAlpha"/>
<feOffset/>
<feGaussianBlur stdDeviation="7.5"/>
<feComposite in2="hardAlpha" operator="arithmetic" k2="-1" k3="1"/>
<feColorMatrix type="matrix" values="0 0 0 0 1 0 0 0 0 1 0 0 0 0 1 0 0 0 0.9 0"/>
<feBlend mode="normal" in2="shape" result="effect1_innerShadow_1052_325"/>
<feTurbulence type="fractalNoise" baseFrequency="0.66666668653488159 0.66666668653488159" stitchTiles="stitch" numOctaves="3" result="noise" seed="9339" />
<feColorMatrix in="noise" type="luminanceToAlpha" result="alphaNoise" />
<feComponentTransfer in="alphaNoise" result="coloredNoise1">
<feFuncA type="discrete" tableValues="1 1 1 1 1 1 1 1 1 1 1 1 1 1 1 1 1 1 1 1 1 1 1 1 1 1 1 1 1 1 1 1 1 1 1 1 1 1 1 1 1 1 1 1 1 1 1 1 1 1 1 0 0 0 0 0 0 0 0 0 0 0 0 0 0 0 0 0 0 0 0 0 0 0 0 0 0 0 0 0 0 0 0 0 0 0 0 0 0 0 0 0 0 0 0 0 0 0 0 0 "/>
</feComponentTransfer>
<feComposite operator="in" in2="effect1_innerShadow_1052_325" in="coloredNoise1" result="noise1Clipped" />
<feFlood flood-color="rgba(255, 255, 255, 0.1)" result="color1Flood" />
<feComposite operator="in" in2="noise1Clipped" in="color1Flood" result="color1" />
<feMerge result="effect2_noise_1052_325">
<feMergeNode in="effect1_innerShadow_1052_325" />
<feMergeNode in="color1" />
</feMerge>
</filter>
<linearGradient id="paint0_linear_1052_325" x1="319" y1="0" x2="319" y2="65" gradientUnits="userSpaceOnUse">
<stop stop-color="#4827FC"/>
<stop offset="1" stop-color="#DC49FF"/>
</linearGradient>
</defs>
</svg>
