<svg width="306" height="302" viewBox="0 0 306 302" fill="none" xmlns="http://www.w3.org/2000/svg">
<circle cx="153" cy="151" r="112" fill="white"/>
<path fill-rule="evenodd" clip-rule="evenodd" d="M172.33 6.52651L191.765 21.0592C197.081 25.0337 202.675 27.0678 209.305 27.4366L233.543 28.7835C248.057 29.5897 259.845 39.4703 263.16 53.6094L268.698 77.2216C270.212 83.6792 273.189 88.83 278.03 93.3687L295.732 109.965C306.331 119.903 309.002 135.041 302.445 148.001L291.493 169.644C288.498 175.563 287.464 181.42 288.252 188.006L291.134 212.086C292.859 226.505 285.165 239.817 271.803 245.534L249.486 255.081C243.383 257.692 238.822 261.515 235.189 267.066L221.901 287.362C213.945 299.515 199.485 304.772 185.571 300.571L162.333 293.556C155.978 291.637 150.024 291.637 143.668 293.556L120.43 300.571C106.516 304.772 92.0561 299.515 84.1001 287.362L70.8126 267.066C67.1782 261.515 62.6176 257.692 56.5148 255.081L34.1971 245.532C20.8351 239.815 13.1411 226.504 14.8661 212.085L17.7476 188.005C18.5356 181.419 17.5016 175.562 14.5066 169.643L3.55495 148C-3.00239 135.04 -0.330622 119.902 10.2685 109.964L27.97 93.3675C32.8112 88.8287 35.7877 83.6779 37.3017 77.2203L42.8391 53.6082C46.1541 39.4697 57.9421 29.5891 72.4561 28.7822L96.6946 27.4353C103.324 27.0672 108.919 25.0325 114.234 21.0579L133.669 6.52523C145.305 -2.17529 160.693 -2.17529 172.33 6.52651ZM140.602 159.317L119.511 138.248C114.044 132.787 105.177 132.787 99.7112 138.248C94.2447 143.708 94.2447 152.566 99.7112 158.027L130.733 189.015C136.199 194.476 145.066 194.476 150.532 189.015C169.23 170.336 187.716 151.447 206.328 132.683C211.755 127.211 211.738 118.382 206.268 112.948C200.797 107.512 191.933 107.528 186.5 113.009L140.602 159.317ZM152.999 46.8468C124.209 46.8468 98.1436 58.5048 79.2761 77.3528C60.4086 96.2014 48.7385 122.239 48.7385 151C48.7385 179.76 60.4086 205.799 79.2761 224.647C98.1436 243.494 124.209 255.152 152.999 255.152C181.79 255.152 207.855 243.494 226.723 224.647C245.59 205.799 257.26 179.76 257.26 151C257.26 122.239 245.59 96.2008 226.723 77.3528C207.855 58.5048 181.79 46.8468 152.999 46.8468ZM219.511 84.5574C202.489 67.5537 178.974 57.0363 152.999 57.0363C127.025 57.0363 103.509 67.5537 86.4882 84.5574C69.4669 101.561 58.9385 125.052 58.9385 151C58.9385 176.947 69.4669 200.438 86.4882 217.442C103.509 234.446 127.025 244.963 152.999 244.963C178.974 244.963 202.489 234.446 219.511 217.443C236.532 200.439 247.06 176.948 247.06 151C247.06 125.052 236.532 101.561 219.511 84.5574Z" fill="#09C33B"/>
</svg>
