<?xml version="1.0" encoding="utf-8"?>
<!-- Generator: Adobe Illustrator 26.0.1, SVG Export Plug-In . SVG Version: 6.00 Build 0)  -->
<svg version="1.1"
	 id="katman_1" sodipodi:docname="Claude_Ai.svg" xmlns:inkscape="http://www.inkscape.org/namespaces/inkscape" xmlns:sodipodi="http://sodipodi.sourceforge.net/DTD/sodipodi-0.dtd" xmlns:svg="http://www.w3.org/2000/svg"
	 xmlns="http://www.w3.org/2000/svg" xmlns:xlink="http://www.w3.org/1999/xlink" x="0px" y="0px" viewBox="0 0 690 148.2"
	 style="enable-background:new 0 0 690 148.2;" xml:space="preserve">
<style type="text/css">
	.st0{fill:#D97757;}
	.st1{fill:#FFFFFF;}
</style>
<sodipodi:namedview  bordercolor="#000000" borderopacity="0.25" id="namedview152" inkscape:current-layer="katman_1" inkscape:cx="345.39995" inkscape:cy="73.741361" inkscape:deskcolor="#d1d1d1" inkscape:pagecheckerboard="0" inkscape:pageopacity="0.0" inkscape:showpageshadow="2" inkscape:window-height="991" inkscape:window-maximized="1" inkscape:window-width="1920" inkscape:window-x="-9" inkscape:window-y="-9" inkscape:zoom="1.3086279" pagecolor="#ffffff" showgrid="false">
	</sodipodi:namedview>
<g id="g314" transform="translate(-75.96,-223.53)">
	<path id="path147" shape-rendering="optimizeQuality" class="st0" d="M105,322.1l29.1-16.4l0.5-1.4l-0.5-0.8h-1.4l-4.9-0.3
		l-16.7-0.5l-14.4-0.6l-14-0.8l-3.5-0.8l-3.3-4.4l0.3-2.2l3-2l4.2,0.4l9.4,0.6l14.1,1l10.2,0.6l15.1,1.6h2.4l0.3-1l-0.8-0.6
		l-0.6-0.6l-14.6-9.9l-15.8-10.4l-8.2-6l-4.5-3l-2.2-2.9l-1-6.2l4.1-4.5l5.4,0.4l1.4,0.4l5.5,4.2l11.8,9.1l15.4,11.3l2.2,1.9
		l0.9-0.6l0.1-0.5l-1-1.7l-8.4-15.1l-8.9-15.4l-4-6.4l-1.1-3.8c-0.4-1.6-0.6-2.9-0.6-4.5l4.6-6.3l2.6-0.8l6.2,0.8l2.6,2.2l3.8,8.7
		l6.2,13.8l9.6,18.7l2.8,5.5l1.5,5.1l0.6,1.6h1v-0.9l0.8-10.5l1.5-12.9l1.4-16.6l0.5-4.7l2.3-5.6l4.6-3l3.6,1.7l3,4.2l-0.4,2.7
		l-1.8,11.4l-3.4,17.9l-2.2,12h1.3l1.5-1.5l6.1-8.1l10.2-12.8l4.5-5.1l5.2-5.6l3.4-2.7h6.4l4.7,7l-2.1,7.2l-6.6,8.3l-5.4,7
		l-7.8,10.5l-4.9,8.4l0.4,0.7l1.2-0.1l17.6-3.8l9.5-1.7l11.4-2l5.1,2.4l0.6,2.4l-2,5l-12.1,3l-14.2,2.9l-21.2,5l-0.3,0.2l0.3,0.4
		l9.6,0.9l4.1,0.2h10l18.6,1.4l4.9,3.2l2.9,3.9l-0.5,3l-7.5,3.8l-10.1-2.4l-23.6-5.6l-8.1-2h-1.1v0.7l6.8,6.6l12.4,11.2l15.5,14.4
		l0.8,3.6l-2,2.8l-2.1-0.3l-13.6-10.2l-5.2-4.6l-11.9-10h-0.8v1l2.7,4l14.5,21.8l0.8,6.7l-1.1,2.2l-3.8,1.3l-4.1-0.8l-8.5-11.9
		l-8.7-13.4l-7.1-12l-0.9,0.5l-4.2,44.8l-1.9,2.3l-4.5,1.7l-3.8-2.9l-2-4.6l2-9.1l2.4-11.9l1.9-9.5l1.8-11.7l1.1-3.9l-0.1-0.3
		l-0.9,0.1l-8.9,12.1l-13.5,18.2l-10.7,11.4l-2.6,1l-4.4-2.3l0.4-4.1l2.5-3.6l14.7-18.8l8.9-11.6l5.7-6.7l0-1h-0.3l-39.2,25.4
		l-7,0.9l-3-2.8l0.4-4.6l1.4-1.5L105,322.1L105,322.1L105,322.1z"/>
	<path id="path149" shape-rendering="optimizeQuality" class="st1" d="M317.7,349.3c-18.8,0-31.7-10.5-37.8-26.7
		c-3.2-8.4-4.7-17.4-4.6-26.4c0-27.1,12.1-45.9,39-45.9c18,0,29.2,7.9,35.5,26.7h7.7l-1-25.9c-10.8-7-24.3-10.5-40.7-10.5
		c-23.1,0-42.8,10.4-53.8,29c-5.7,9.9-8.5,21.1-8.3,32.4c0,20.7,9.8,39.1,28.2,49.3c10.1,5.4,21.3,8,32.7,7.7
		c17.9,0,32.1-3.4,44.7-9.4l3.3-28.6h-7.9c-4.7,13-10.4,20.9-19.7,25C330.5,348.3,324.7,349.3,317.7,349.3L317.7,349.3z
		 M398.9,250.4l0.8-12.8h-5.3l-23.7,7.1v3.9l10.5,4.9v89.2c0,6.1-3.1,7.4-11.2,8.4v6.5h40.3v-6.5c-8.2-1-11.2-2.4-11.2-8.4
		L398.9,250.4L398.9,250.4L398.9,250.4z M559.2,359.1h3.1l27.3-5.2v-6.7l-3.8-0.3c-6.4-0.6-8-1.9-8-7.1v-47.5l0.8-15.3h-4.3
		l-25.8,3.7v6.5l2.5,0.5c7,1,9,3,9,7.8v42.4c-6.7,5.2-13,8.4-20.6,8.4c-8.4,0-13.6-4.3-13.6-14.2v-39.8l0.8-15.3h-4.4l-25.8,3.7v6.5
		l2.7,0.5c7,1,9,3,9,7.8v39.1c0,16.6,9.4,24.5,24.3,24.5c11.4,0,20.7-6.1,27.8-14.5L559.2,359.1L559.2,359.1L559.2,359.1z
		 M484.3,306.4c0-21.2-11.2-29.3-31.6-29.3c-17.9,0-30.9,7.4-30.9,19.7c0,3.7,1.3,6.5,4,8.4l13.6-1.8c-0.6-4.1-0.9-6.6-0.9-7.7
		c0-7,3.7-10.5,11.2-10.5c11.1,0,16.8,7.8,16.8,20.4v4.1l-28.1,8.4c-9.4,2.5-14.7,4.8-18.3,9.9c-1.9,3.2-2.8,6.8-2.6,10.5
		c0,12,8.2,20.5,22.4,20.5c10.2,0,19.2-4.6,27.1-13.4c2.8,8.7,7.1,13.4,14.8,13.4c6.2,0,11.9-2.5,16.9-7.4l-1.5-5.2
		c-2.2,0.6-4.3,0.9-6.5,0.9c-4.3,0-6.4-3.4-6.4-10.1V306.4L484.3,306.4z M448.3,347.1c-7.7,0-12.5-4.5-12.5-12.3
		c0-5.3,2.5-8.4,7.9-10.2l22.8-7.2v21.9C459.2,344.8,455,347.1,448.3,347.1L448.3,347.1z M685.7,353.9v-6.7l-3.9-0.3
		c-6.4-0.6-8-1.9-8-7.1v-89.5l0.8-12.8h-5.4l-23.7,7.1v3.9l10.5,4.9v29.3c-5.9-4-13-6.1-20.1-5.8c-23.5,0-41.9,17.9-41.9,44.7
		c0,22.1,13.2,37.4,35,37.4c11.2,0,21-5.5,27.1-14l-0.8,14h3.2L685.7,353.9L685.7,353.9L685.7,353.9z M636.3,285.9
		c11.2,0,19.7,6.5,19.7,18.5v33.8c-5.2,5.2-12.2,8-19.5,7.9c-16.1,0-24.3-12.8-24.3-29.8C612.2,297.2,621.5,285.9,636.3,285.9
		L636.3,285.9z M743.3,302.8c-2.1-9.9-8.2-15.5-16.6-15.5c-12.6,0-21.3,9.5-21.3,23.1c0,20.1,10.7,33.2,27.9,33.2
		c11.5-0.1,22-6.3,27.7-16.3l5,1.4c-2.2,17.5-18.1,30.5-37.5,30.5c-22.8,0-38.5-16.9-38.5-40.9s17.1-41.2,39.9-41.2
		c17,0,29,10.2,32.9,28l-59.4,18.2v-8L743.3,302.8L743.3,302.8L743.3,302.8z"/>
</g>
</svg>
