<?xml version="1.0" encoding="utf-8"?>
<!-- Generator: Adobe Illustrator 26.0.1, SVG Export Plug-In . SVG Version: 6.00 Build 0)  -->
<svg version="1.1" id="Layer_1" xmlns="http://www.w3.org/2000/svg" xmlns:xlink="http://www.w3.org/1999/xlink" x="0px" y="0px"
	 viewBox="0 0 1024 233" style="enable-background:new 0 0 1024 233;" xml:space="preserve">
<style type="text/css">
	.st0{fill:#FFFFFF;}
	.st1{fill-rule:evenodd;clip-rule:evenodd;fill:#FBBC04;}
	.st2{fill-rule:evenodd;clip-rule:evenodd;fill:#4285F4;}
	.st3{fill-rule:evenodd;clip-rule:evenodd;fill:#EA4335;}
	.st4{fill-rule:evenodd;clip-rule:evenodd;fill:#34A853;}
</style>
<g id="surface1">
	<path class="st0" d="M342,186c-19,0.2-37.4-7.3-50.7-20.9c-13.8-13-21.5-31.2-21.3-50.2c-0.2-19,7.5-37.2,21.3-50.1
		C304.7,51.2,323,43.7,342,43.9c18.2-0.3,35.7,6.8,48.6,19.6L377,77.2c-9.4-9.1-21.9-14.1-35-13.9c-13.6-0.2-26.7,5.2-36.1,15.1
		c-9.7,9.6-15.1,22.8-14.9,36.6c-0.2,13.7,5.2,26.9,14.9,36.6c9.4,9.9,22.5,15.3,36.1,15.1c13.4,0.4,26.4-4.7,35.8-14.2
		c5.7-5.7,9.2-13.8,10.6-24.4H342v-19.4h65.3c0.7,4,1.1,8.1,1,12.1c0,19.1-5.6,34.2-16.8,45.4C378.9,179.4,362.3,186,342,186z
		 M493.7,172.9c-18.2,17.4-46.9,17.4-65.1,0c-8.8-8.5-13.7-20.4-13.3-32.7c-0.3-12.3,4.5-24.1,13.3-32.7c18.2-17.4,46.9-17.4,65.1,0
		c8.8,8.5,13.6,20.4,13.3,32.7C507.3,152.5,502.5,164.4,493.7,172.9L493.7,172.9z M443,160.1c4.7,5.1,11.3,7.9,18.2,7.9
		s13.5-2.9,18.2-7.9c5.1-5.3,7.9-12.5,7.6-19.9c0.3-7.4-2.4-14.5-7.4-19.9c-4.8-5-11.4-7.8-18.3-7.8s-13.5,2.8-18.3,7.8
		c-5,5.4-7.7,12.5-7.4,19.9C435.2,147.6,437.9,154.8,443,160.1z M593.8,172.9c-18.2,17.4-46.9,17.4-65.1,0
		c-8.8-8.5-13.7-20.4-13.3-32.7c-0.3-12.3,4.5-24.1,13.3-32.7c18.2-17.4,46.9-17.4,65.1,0c8.8,8.5,13.6,20.4,13.3,32.7
		C607.4,152.6,602.6,164.4,593.8,172.9z M543,160.1c4.7,5.1,11.3,7.9,18.2,7.9c6.9,0,13.5-2.9,18.2-7.9c5.1-5.3,7.9-12.5,7.6-19.9
		c0.3-7.4-2.4-14.5-7.4-19.9c-4.8-5-11.4-7.8-18.3-7.8s-13.5,2.8-18.3,7.8c-5,5.4-7.7,12.5-7.4,19.9
		C535.3,147.6,538,154.8,543,160.1z M659.5,227.1c-9.2,0.3-18.3-2.6-25.6-8.2c-6.5-4.9-11.6-11.4-14.9-18.9l17.4-7.3
		c1.9,4.5,4.9,8.4,8.6,11.4c4,3.3,9.1,5.1,14.4,5c6.7,0.4,13.2-2.2,17.9-6.9c4.3-4.6,6.5-11.2,6.5-19.9v-6.7h-0.7
		c-5.7,6.9-13.7,10.4-24.1,10.4c-11.6,0-22.7-4.8-30.6-13.3c-8.6-8.5-13.4-20.2-13.2-32.3c-0.2-12.2,4.5-23.9,13.2-32.5
		c7.9-8.6,19-13.4,30.6-13.4c4.9-0.1,9.7,0.9,14.1,3c3.8,1.7,7.2,4.2,9.9,7.3h0.7v-7.5h19v82c0,15.9-4.1,27.9-12.2,35.8
		C682.3,223.1,671.1,227.4,659.5,227.1L659.5,227.1z M660.9,168c6.7,0.1,13.1-2.8,17.4-7.9c4.7-5.4,7.2-12.5,7-19.7
		c0.2-7.3-2.3-14.4-7-19.9c-4.3-5.1-10.7-8.1-17.4-8c-6.9-0.1-13.4,2.8-18,8c-5,5.4-7.7,12.5-7.4,19.9c-0.2,7.3,2.5,14.4,7.4,19.7
		C647.5,165.2,654.1,168.1,660.9,168L660.9,168z M736.8,48.9v134.4h-20.1V48.9H736.8z M791.9,186.1c-12.1,0.3-23.8-4.5-32.3-13.2
		c-8.6-8.6-13.3-20.4-13-32.6c-0.5-12.3,4.1-24.2,12.6-33c7.9-8.4,19-13,30.5-12.8c5.3-0.1,10.5,1,15.4,3c4.4,1.8,8.4,4.5,11.8,7.8
		c2.8,2.8,5.3,5.9,7.4,9.3c1.8,2.9,3.3,5.9,4.5,9l2.1,5.2l-61.1,25.3c3.9,8.7,12.6,14.2,22.1,13.9c9.2,0,16.7-4.2,22.5-12.6
		l15.6,10.4c-3.9,5.6-8.9,10.4-14.7,14c-7,4.3-15.1,6.5-23.3,6.3L791.9,186.1z M766.6,138.9l40.8-17c-1.3-3-3.5-5.5-6.4-7
		c-3.2-1.8-6.9-2.7-10.6-2.7c-6.3,0.2-12.2,2.8-16.5,7.3C768.8,124.6,766.1,131.7,766.6,138.9z"/>
	<path class="st0" d="M958,149.9h-53.8L891.4,186h-18l48.3-129.3h19.4L989.4,186h-18.2L958,149.9z M910.3,133.8H952l-21.1-58
		L910.3,133.8z M1003.9,186.1c3.3,0,14.4,0,16.6,0c0-43.1,0-86.2,0-129.3c-5.5,0-11.1,0-16.6,0C1003.9,99.9,1003.9,143,1003.9,186.1
		z"/>
	<path class="st1" d="M84.9,14.2C84.9,6.4,91.2,0,99.1,0s14.2,6.4,14.2,14.2c0,7.9-6.4,14.2-14.2,14.2S84.9,22.1,84.9,14.2z"/>
	<path class="st1" d="M84.9,65.1c0-7.9,6.4-14.2,14.2-14.2s14.2,6.4,14.2,14.2c0,7.9-6.4,14.2-14.2,14.2S84.9,73,84.9,65.1z"/>
	<path class="st1" d="M84.9,116c0-7.9,6.4-14.2,14.2-14.2s14.2,6.4,14.2,14.2c0,7.9-6.4,14.2-14.2,14.2S84.9,123.9,84.9,116z"/>
	<path class="st1" d="M84.9,166.9c0-7.9,6.4-14.2,14.2-14.2s14.2,6.4,14.2,14.2s-6.4,14.2-14.2,14.2S84.9,174.7,84.9,166.9z"/>
	<path class="st1" d="M84.9,218.7c0-7.9,6.4-14.2,14.2-14.2s14.2,6.4,14.2,14.2S106.9,233,99.1,233S84.9,226.6,84.9,218.7z"/>
	<path class="st2" d="M166.2,65.1c0-10.7,8.6-19.3,19.3-19.3c10.7,0,19.3,8.7,19.3,19.3s-8.6,19.3-19.3,19.3
		C174.8,84.4,166.2,75.8,166.2,65.1z"/>
	<path class="st2" d="M1.5,65.1c0-5.6,4.6-10.2,10.2-10.2s10.2,4.6,10.2,10.2c0,5.6-4.6,10.2-10.2,10.2S1.5,70.7,1.5,65.1z"/>
	<path class="st2" d="M1.5,116c0-5.6,4.6-10.2,10.2-10.2s10.2,4.6,10.2,10.2c0,5.6-4.6,10.2-10.2,10.2S1.5,121.6,1.5,116z"/>
	<path class="st2" d="M1.5,166.9c0-5.6,4.6-10.2,10.2-10.2s10.2,4.6,10.2,10.2c0,5.6-4.6,10.2-10.2,10.2S1.5,172.5,1.5,166.9z"/>
	<path class="st2" d="M166.2,116c0-10.7,8.6-19.3,19.3-19.3c10.7,0,19.3,8.7,19.3,19.3s-8.6,19.3-19.3,19.3
		C174.8,135.3,166.2,126.7,166.2,116z"/>
	<path class="st2" d="M166.2,166.9c0-10.7,8.6-19.3,19.3-19.3c10.7,0,19.3,8.7,19.3,19.3s-8.6,19.3-19.3,19.3
		C174.8,186.2,166.2,177.5,166.2,166.9z"/>
	<path class="st3" d="M43.2,39.7c0-6.7,5.5-12.2,12.2-12.2c6.7,0,12.2,5.5,12.2,12.2s-5.5,12.2-12.2,12.2
		C48.6,51.9,43.2,46.4,43.2,39.7z"/>
	<path class="st3" d="M43.2,90.6c0-6.7,5.5-12.2,12.2-12.2c6.7,0,12.2,5.5,12.2,12.2s-5.5,12.2-12.2,12.2
		C48.6,102.8,43.2,97.3,43.2,90.6z"/>
	<path class="st3" d="M43.2,141.4c0-6.7,5.5-12.2,12.2-12.2c6.7,0,12.2,5.5,12.2,12.2s-5.5,12.2-12.2,12.2
		C48.6,153.6,43.2,148.2,43.2,141.4z"/>
	<path class="st3" d="M43.2,192.3c0-6.7,5.5-12.2,12.2-12.2c6.7,0,12.2,5.5,12.2,12.2s-5.5,12.2-12.2,12.2
		C48.6,204.5,43.2,199,43.2,192.3z"/>
	<path class="st4" d="M125.5,40.2c0-9.3,7.5-16.8,16.8-16.8c9.3,0,16.8,7.5,16.8,16.8c0,9.3-7.5,16.8-16.8,16.8
		C133,57,125.5,49.5,125.5,40.2z"/>
	<path class="st4" d="M125.5,91.1c0-9.3,7.5-16.8,16.8-16.8c9.3,0,16.8,7.5,16.8,16.8c0,9.3-7.5,16.8-16.8,16.8
		C133,107.8,125.5,100.3,125.5,91.1z"/>
	<path class="st4" d="M125.5,141.9c0-9.3,7.5-16.8,16.8-16.8c9.3,0,16.8,7.5,16.8,16.8c0,9.3-7.5,16.8-16.8,16.8
		C133,158.7,125.5,151.2,125.5,141.9z"/>
	<path class="st4" d="M125.5,192.8c0-9.3,7.5-16.8,16.8-16.8c9.3,0,16.8,7.5,16.8,16.8c0,9.3-7.5,16.8-16.8,16.8
		C133,209.6,125.5,202.1,125.5,192.8z"/>
</g>
</svg>
