<?xml version="1.0" encoding="utf-8"?>
<!-- Generator: Adobe Illustrator 26.0.1, SVG Export Plug-In . SVG Version: 6.00 Build 0)  -->
<svg version="1.1" id="Layer_1" xmlns="http://www.w3.org/2000/svg" xmlns:xlink="http://www.w3.org/1999/xlink" x="0px" y="0px"
	 viewBox="0 0 149.8 36" style="enable-background:new 0 0 149.8 36;" xml:space="preserve">
<style type="text/css">
	.st0{fill:none;stroke:#20808D;stroke-miterlimit:10;}
	.st1{fill:#FFFFFF;}
</style>
<path class="st0" d="M23.6,1.4l-9.5,9.5h9.5V1.4V4V1.4z M14.1,10.9L4.6,1.4v9.5H14.1z M14,0v36 M23.6,20.4l-9.5-9.5v13.6l9.5,9.5
	V20.4z M4.6,20.4l9.5-9.5v13.6L4.6,34V20.4z M0.5,10.9v13.6h4.1v-4.1l9.5-9.5H0.5z M14.1,10.9l9.5,9.5v4.1h4.1V10.9H14.1z"/>
<path class="st1" d="M55.5,13c0.6-1.1,1.4-2,2.5-2.6c1.1-0.6,2.3-0.9,3.8-0.9s2.6,0.3,3.6,0.9c1,0.6,1.7,1.4,2.2,2.3
	c0.5,1,0.7,2,0.7,3.2v1.6H57.1c0.1,1.4,0.6,2.5,1.4,3.3c0.9,0.8,2,1.2,3.4,1.2c1.2,0,2.1-0.2,2.7-0.7c0.6-0.5,1.1-1.1,1.4-2h2.6
	c-0.3,1.3-1,2.4-2.1,3.4c-1,1-2.6,1.4-4.5,1.4c-1.5,0-2.8-0.3-3.9-0.9c-1.1-0.6-2-1.5-2.6-2.6c-0.6-1.1-0.9-2.4-0.9-3.9
	S54.9,14.1,55.5,13L55.5,13L55.5,13z M65.6,15.6c0-1.2-0.3-2.2-0.9-2.9c-0.6-0.7-1.6-1-3-1c-1.3,0-2.3,0.3-3.1,1
	c-0.8,0.7-1.3,1.6-1.5,2.9H65.6z M71.7,10v2.2c0,0.1,0.1,0.2,0.2,0.2c0.1,0,0.1,0,0.2-0.1s0.1-0.1,0.1-0.2c0.5-1.5,1.6-2.2,3.5-2.2
	h1.2v2.4h-1.5c-1.2,0-2.1,0.3-2.7,0.9s-0.9,1.5-0.9,2.8v7.9h-2.4V10L71.7,10L71.7,10z M91,21c-0.6,1.1-1.5,2-2.5,2.5
	s-2.1,0.8-3.3,0.8c-2.3,0-3.9-0.9-4.8-2.7c-0.1-0.1-0.2-0.2-0.3-0.2S80,21.4,80,21.5V29h-2.4V10H80v2.4c0,0.1,0.1,0.2,0.2,0.2
	s0.2-0.1,0.3-0.2c0.9-1.8,2.5-2.7,4.8-2.7c1.2,0,2.3,0.3,3.3,0.8c1,0.6,1.8,1.4,2.5,2.5c0.6,1.1,1,2.5,1,4S91.6,19.9,91,21L91,21z
	 M88.2,13.1c-0.9-0.9-2.1-1.4-3.5-1.4s-2.6,0.5-3.5,1.4C80.3,14,80,15.3,80,16.9s0.3,2.9,1.2,3.9c0.9,0.9,2.1,1.4,3.5,1.4
	s2.6-0.5,3.5-1.4c0.9-0.9,1.3-2.2,1.3-3.9S89.1,14,88.2,13.1z M95.5,4.6v19.3H93V4.6L95.5,4.6L95.5,4.6z M97.5,13
	c0.6-1.1,1.4-2,2.5-2.6c1.1-0.6,2.3-0.9,3.8-0.9s2.6,0.3,3.6,0.9c1,0.6,1.7,1.4,2.2,2.3c0.5,1,0.7,2,0.7,3.2v1.6H99.1
	c0.1,1.4,0.6,2.5,1.4,3.3c0.9,0.8,2,1.2,3.4,1.2c1.2,0,2.1-0.2,2.7-0.7c0.6-0.5,1.1-1.1,1.4-2h2.6c-0.3,1.3-1,2.4-2.1,3.4
	c-1,1-2.6,1.4-4.5,1.4c-1.5,0-2.8-0.3-3.9-0.9c-1.1-0.6-2-1.5-2.6-2.6c-0.6-1.1-0.9-2.4-0.9-3.9S96.9,14.1,97.5,13L97.5,13L97.5,13z
	 M107.6,15.6c0-1.2-0.3-2.2-0.9-2.9c-0.6-0.7-1.6-1-3-1c-1.3,0-2.3,0.3-3.1,1c-0.8,0.7-1.3,1.6-1.5,2.9
	C99.2,15.6,107.6,15.6,107.6,15.6z M109.2,23.4l5.5-6.8l-4.5-6V10h2.7l3.8,5.2l4.1-5.2h2.7v0.6l-5.2,6.4l4.8,6.4v0.5h-2.6l-4.1-5.6
	l-4.4,5.6h-2.7L109.2,23.4L109.2,23.4z M127,5.4v3h-2.8v-3H127z M126.9,23.9h-2.4V10h2.4V23.9z M127.6,10h2.6V6.2h2.4V10h2.8l0.7,2
	h-3.5v6.7c0,0.9,0,1.6-0.1,2c0,0.4-0.1,0.7-0.1,0.8c0,0.1,0,0.2,0.1,0.3c0.1,0.1,0.2,0.1,0.3,0.1c0.1,0,0.4,0,0.8-0.1
	c0.4,0,1.1-0.1,2-0.1h0.9v2.1h-1.9c-1.5,0-2.7-0.4-3.4-1.1c-0.8-0.8-1.1-1.9-1.1-3.4V12h-2.6L127.6,10L127.6,10L127.6,10z M136.2,10
	h2.5l4,11.7c0.1,0.1,0.1,0.3,0.4,0.3s0.4-0.2,0.4-0.3l4-11.7h2.3v0.5l-5,15.1c-0.4,1.3-1,2.2-1.8,2.7c-0.8,0.5-1.7,0.8-3.2,0.8h-2.6
	v-2.1h2c0.6,0,1.1,0,1.5,0.1c0.4,0,0.6,0.1,0.8,0.1c0.3,0,0.5-0.1,0.6-0.4l0.8-2c0.1-0.2,0.1-0.4,0-0.5c0-0.1-0.1-0.1-0.1-0.1
	c-0.1,0-0.1,0-0.2,0h-1.6L136.2,10L136.2,10L136.2,10z M53,21c-0.6,1.1-1.5,2-2.5,2.5s-2.1,0.8-3.3,0.8c-2.3,0-3.9-0.9-4.8-2.7
	c-0.1-0.1-0.2-0.2-0.3-0.2S42,21.5,42,21.6V29h-2.4V10H42v2.4c0,0.1,0.1,0.2,0.2,0.2s0.2-0.1,0.3-0.2c0.9-1.8,2.5-2.7,4.8-2.7
	c1.2,0,2.3,0.3,3.3,0.8s1.8,1.4,2.5,2.5c0.6,1.1,1,2.5,1,4S53.7,19.9,53,21z M50.2,13.1c-0.9-0.9-2.1-1.4-3.5-1.4s-2.6,0.5-3.5,1.4
	C42.3,14,42,15.3,42,17s0.3,2.9,1.2,3.9c0.9,0.9,2.1,1.4,3.5,1.4s2.6-0.5,3.5-1.4c0.9-0.9,1.3-2.2,1.3-3.9S51.1,14,50.2,13.1z"/>
</svg>
