<svg width="450" height="52" viewBox="0 0 450 52" fill="none" xmlns="http://www.w3.org/2000/svg">
<g filter="url(#filter0_i_259_481)">
<rect width="450" height="52" rx="26" fill="white" fill-opacity="0.06"/>
</g>
<rect x="1" y="1" width="448" height="50" rx="25" stroke="#8C42FF" stroke-width="2"/>
<mask id="mask0_259_481" style="mask-type:alpha" maskUnits="userSpaceOnUse" x="0" y="0" width="450" height="52">
<rect width="450" height="52" rx="26" fill="url(#paint0_linear_259_481)"/>
</mask>
<g mask="url(#mask0_259_481)">
<path d="M58.7516 -87.6555L63.3315 -86.7672L34.0177 64.3668L29.4379 63.4785L58.7516 -87.6555Z" fill="black" fill-opacity="0.1"/>
<path d="M205.306 -59.2301L209.886 -58.3418L180.572 92.7923L175.992 91.904L205.306 -59.2301Z" fill="black" fill-opacity="0.1"/>
<path d="M-14.5255 -101.868L-9.94568 -100.98L-39.2594 50.1541L-43.8392 49.2658L-14.5255 -101.868Z" fill="black" fill-opacity="0.1"/>
<path d="M132.029 -73.4428L136.609 -72.5545L107.295 78.5796L102.715 77.6913L132.029 -73.4428Z" fill="black" fill-opacity="0.1"/>
<path d="M22.1131 -94.7619L26.6929 -93.8736L-2.62084 57.2605L-7.20066 56.3722L22.1131 -94.7619Z" fill="black" fill-opacity="0.1"/>
<path d="M168.667 -66.3365L173.247 -65.4482L143.933 85.6859L139.354 84.7976L168.667 -66.3365Z" fill="black" fill-opacity="0.1"/>
<path d="M-51.1641 -108.975L-46.5842 -108.086L-75.898 43.0478L-80.4778 42.1595L-51.1641 -108.975Z" fill="black" fill-opacity="0.1"/>
<path d="M95.3902 -80.5492L99.97 -79.6609L70.6563 71.4732L66.0765 70.5849L95.3902 -80.5492Z" fill="black" fill-opacity="0.1"/>
<path d="M77.0709 -84.1024L81.6507 -83.2141L52.337 67.92L47.7572 67.0317L77.0709 -84.1024Z" fill="black" fill-opacity="0.1"/>
<path d="M223.625 -55.6769L228.205 -54.7886L198.891 96.3455L194.311 95.4572L223.625 -55.6769Z" fill="black" fill-opacity="0.1"/>
<path d="M3.79379 -98.3151L8.37361 -97.4268L-20.9401 53.7073L-25.5199 52.819L3.79379 -98.3151Z" fill="black" fill-opacity="0.1"/>
<path d="M150.348 -69.8896L154.928 -69.0013L125.614 82.1327L121.034 81.2444L150.348 -69.8896Z" fill="black" fill-opacity="0.1"/>
<path d="M40.4324 -91.2087L45.0122 -90.3204L15.6984 60.8137L11.1186 59.9254L40.4324 -91.2087Z" fill="black" fill-opacity="0.1"/>
<path d="M186.987 -62.7833L191.566 -61.895L162.253 89.2391L157.673 88.3508L186.987 -62.7833Z" fill="black" fill-opacity="0.1"/>
<path d="M-32.8448 -105.421L-28.265 -104.533L-57.5787 46.6009L-62.1585 45.7127L-32.8448 -105.421Z" fill="black" fill-opacity="0.1"/>
<path d="M113.709 -76.996L118.289 -76.1077L88.9756 75.0264L84.3958 74.1381L113.709 -76.996Z" fill="black" fill-opacity="0.1"/>
<path d="M67.9113 -85.8789L72.4911 -84.9907L43.1774 66.1434L38.5975 65.2551L67.9113 -85.8789Z" fill="black" fill-opacity="0.1"/>
<path d="M214.466 -57.4535L219.045 -56.5652L189.732 94.5689L185.152 93.6806L214.466 -57.4535Z" fill="black" fill-opacity="0.1"/>
<path d="M-5.36586 -100.092L-0.786035 -99.2034L-30.0998 51.9307L-34.6796 51.0424L-5.36586 -100.092Z" fill="black" fill-opacity="0.1"/>
<path d="M141.188 -71.6662L145.768 -70.7779L116.454 80.3561L111.875 79.4679L141.188 -71.6662Z" fill="black" fill-opacity="0.1"/>
<path d="M31.2727 -92.9853L35.8525 -92.097L6.5388 59.0371L1.95898 58.1488L31.2727 -92.9853Z" fill="black" fill-opacity="0.1"/>
<path d="M177.827 -64.5599L182.407 -63.6716L153.093 87.4625L148.513 86.5742L177.827 -64.5599Z" fill="black" fill-opacity="0.1"/>
<path d="M-42.0044 -107.198L-37.4246 -106.31L-66.7383 44.8244L-71.3181 43.9361L-42.0044 -107.198Z" fill="black" fill-opacity="0.1"/>
<path d="M104.55 -78.7726L109.13 -77.8843L79.8159 73.2498L75.2361 72.3615L104.55 -78.7726Z" fill="black" fill-opacity="0.1"/>
<path d="M86.2306 -82.3258L90.8104 -81.4375L61.4967 69.6966L56.9168 68.8083L86.2306 -82.3258Z" fill="black" fill-opacity="0.1"/>
<path d="M232.785 -53.9003L237.365 -53.012L208.051 98.122L203.471 97.2338L232.785 -53.9003Z" fill="black" fill-opacity="0.1"/>
<path d="M12.9534 -96.5385L17.5332 -95.6502L-11.7805 55.4839L-16.3603 54.5956L12.9534 -96.5385Z" fill="black" fill-opacity="0.1"/>
<path d="M159.508 -68.113L164.088 -67.2248L134.774 83.9093L130.194 83.021L159.508 -68.113Z" fill="black" fill-opacity="0.1"/>
<path d="M49.592 -89.4321L54.1718 -88.5438L24.8581 62.5903L20.2783 61.702L49.592 -89.4321Z" fill="black" fill-opacity="0.1"/>
<path d="M196.146 -61.0067L200.726 -60.1184L171.412 91.0157L166.833 90.1274L196.146 -61.0067Z" fill="black" fill-opacity="0.1"/>
<path d="M-23.6851 -103.645L-19.1053 -102.757L-48.419 48.3775L-52.9989 47.4892L-23.6851 -103.645Z" fill="black" fill-opacity="0.1"/>
<path d="M122.869 -75.2194L127.449 -74.3311L98.1352 76.803L93.5554 75.9147L122.869 -75.2194Z" fill="black" fill-opacity="0.1"/>
<path d="M351.86 -30.8047L356.44 -29.9164L327.126 121.218L322.546 120.329L351.86 -30.8047Z" fill="black" fill-opacity="0.1"/>
<path d="M498.414 -2.37923L502.994 -1.49094L473.681 149.643L469.101 148.755L498.414 -2.37923Z" fill="black" fill-opacity="0.1"/>
<path d="M278.583 -45.0174L283.163 -44.1291L253.849 107.005L249.269 106.117L278.583 -45.0174Z" fill="black" fill-opacity="0.1"/>
<path d="M425.137 -16.592L429.717 -15.7037L400.403 135.43L395.824 134.542L425.137 -16.592Z" fill="black" fill-opacity="0.1"/>
<path d="M315.222 -37.911L319.801 -37.0227L290.488 114.111L285.908 113.223L315.222 -37.911Z" fill="black" fill-opacity="0.1"/>
<path d="M461.776 -9.48559L466.356 -8.5973L437.042 142.537L432.462 141.648L461.776 -9.48559Z" fill="black" fill-opacity="0.1"/>
<path d="M241.944 -52.1237L246.524 -51.2354L217.211 99.8986L212.631 99.0103L241.944 -52.1237Z" fill="black" fill-opacity="0.1"/>
<path d="M388.499 -23.6983L393.079 -22.81L363.765 128.324L359.185 127.436L388.499 -23.6983Z" fill="black" fill-opacity="0.1"/>
<path d="M370.179 -27.2515L374.759 -26.3632L345.446 124.771L340.866 123.883L370.179 -27.2515Z" fill="black" fill-opacity="0.1"/>
<path d="M516.734 1.17394L521.314 2.06224L492 153.196L487.42 152.308L516.734 1.17394Z" fill="black" fill-opacity="0.1"/>
<path d="M296.902 -41.4642L301.482 -40.5759L272.168 110.558L267.589 109.67L296.902 -41.4642Z" fill="black" fill-opacity="0.1"/>
<path d="M443.457 -13.0388L448.036 -12.1505L418.723 138.984L414.143 138.095L443.457 -13.0388Z" fill="black" fill-opacity="0.1"/>
<path d="M333.541 -34.3578L338.121 -33.4696L308.807 117.665L304.227 116.776L333.541 -34.3578Z" fill="black" fill-opacity="0.1"/>
<path d="M480.095 -5.93241L484.675 -5.04412L455.361 146.09L450.781 145.202L480.095 -5.93241Z" fill="black" fill-opacity="0.1"/>
<path d="M260.264 -48.5706L264.844 -47.6823L235.53 103.452L230.95 102.564L260.264 -48.5706Z" fill="black" fill-opacity="0.1"/>
<path d="M406.818 -20.1451L411.398 -19.2568L382.084 131.877L377.504 130.989L406.818 -20.1451Z" fill="black" fill-opacity="0.1"/>
<path d="M361.02 -29.0281L365.6 -28.1398L336.286 122.994L331.706 122.106L361.02 -29.0281Z" fill="black" fill-opacity="0.1"/>
<path d="M507.574 -0.602645L512.154 0.285649L482.84 151.42L478.26 150.531L507.574 -0.602645Z" fill="black" fill-opacity="0.1"/>
<path d="M287.743 -43.2408L292.322 -42.3525L263.009 108.782L258.429 107.893L287.743 -43.2408Z" fill="black" fill-opacity="0.1"/>
<path d="M434.297 -14.8154L438.877 -13.9271L409.563 137.207L404.983 136.319L434.297 -14.8154Z" fill="black" fill-opacity="0.1"/>
<path d="M324.381 -36.1344L328.961 -35.2461L299.647 115.888L295.068 115L324.381 -36.1344Z" fill="black" fill-opacity="0.1"/>
<path d="M470.935 -7.709L475.515 -6.82071L446.202 144.313L441.622 143.425L470.935 -7.709Z" fill="black" fill-opacity="0.1"/>
<path d="M251.104 -50.3472L255.684 -49.4589L226.37 101.675L221.79 100.787L251.104 -50.3472Z" fill="black" fill-opacity="0.1"/>
<path d="M397.658 -21.9217L402.238 -21.0334L372.924 130.101L368.345 129.212L397.658 -21.9217Z" fill="black" fill-opacity="0.1"/>
<path d="M379.339 -25.4749L383.919 -24.5866L354.605 126.547L350.025 125.659L379.339 -25.4749Z" fill="black" fill-opacity="0.1"/>
<path d="M525.893 2.95053L530.473 3.83883L501.159 154.973L496.58 154.085L525.893 2.95053Z" fill="black" fill-opacity="0.1"/>
<path d="M306.062 -39.6876L310.642 -38.7993L281.328 112.335L276.748 111.446L306.062 -39.6876Z" fill="black" fill-opacity="0.1"/>
<path d="M452.616 -11.2622L457.196 -10.3739L427.882 140.76L423.302 139.872L452.616 -11.2622Z" fill="black" fill-opacity="0.1"/>
<path d="M342.701 -32.5813L347.28 -31.693L317.967 119.441L313.387 118.553L342.701 -32.5813Z" fill="black" fill-opacity="0.1"/>
<path d="M489.255 -4.15582L493.835 -3.26753L464.521 147.867L459.941 146.978L489.255 -4.15582Z" fill="black" fill-opacity="0.1"/>
<path d="M269.423 -46.794L274.003 -45.9057L244.689 105.228L240.11 104.34L269.423 -46.794Z" fill="black" fill-opacity="0.1"/>
<path d="M415.978 -18.3685L420.557 -17.4802L391.244 133.654L386.664 132.766L415.978 -18.3685Z" fill="black" fill-opacity="0.1"/>
</g>
<defs>
<filter id="filter0_i_259_481" x="0" y="0" width="450" height="52" filterUnits="userSpaceOnUse" color-interpolation-filters="sRGB">
<feFlood flood-opacity="0" result="BackgroundImageFix"/>
<feBlend mode="normal" in="SourceGraphic" in2="BackgroundImageFix" result="shape"/>
<feColorMatrix in="SourceAlpha" type="matrix" values="0 0 0 0 0 0 0 0 0 0 0 0 0 0 0 0 0 0 127 0" result="hardAlpha"/>
<feOffset/>
<feGaussianBlur stdDeviation="15"/>
<feComposite in2="hardAlpha" operator="arithmetic" k2="-1" k3="1"/>
<feColorMatrix type="matrix" values="0 0 0 0 0.655769 0 0 0 0 0.139423 0 0 0 0 1 0 0 0 0.4 0"/>
<feBlend mode="normal" in2="shape" result="effect1_innerShadow_259_481"/>
</filter>
<linearGradient id="paint0_linear_259_481" x1="225" y1="0" x2="225" y2="52" gradientUnits="userSpaceOnUse">
<stop stop-color="#36D3FF"/>
<stop offset="1" stop-color="#2F82FF"/>
</linearGradient>
</defs>
</svg>
